<svg xmlns="http://www.w3.org/2000/svg" x="0px" y="0px" viewBox="5.1 41.51 117.63 44.91"><g><path d="M41.847,81.351a.251.251,0,0,0,.2.165c1.535.2,3.082.549,4.578.884,1.4.314,2.84.638,4.284.848l.036,0a.251.251,0,0,0,.25-.244c.006-.234.023-.474.046-.707a.249.249,0,0,0-.233-.274,21.463,21.463,0,0,1-5.193-1.008,2,2,0,0,1-.6-.3.248.248,0,0,0-.261-.018.429.429,0,0,1-.3.038,2.045,2.045,0,0,0-.292-.048,1.382,1.382,0,0,1-.267-.048c-.152-.048-.375-.1-.528-.139a5.7,5.7,0,0,0-1.041-.089.292.292,0,0,0-.229.138,1.033,1.033,0,0,1-.053.09,2.219,2.219,0,0,1-.349.458A.249.249,0,0,0,41.847,81.351Z"/><path d="M52.844,74.2a.25.25,0,0,0,.237-.171.662.662,0,0,1,.033-.073.25.25,0,0,0-.2-.36,21.878,21.878,0,0,1-3.1-.549,3.227,3.227,0,0,1-2.21-1.272.252.252,0,0,0-.165-.1.256.256,0,0,0-.189.047c-.065.05-.138.1-.2.144a.329.329,0,0,0-.075.365.68.68,0,0,0,.171.353l.044.058a.771.771,0,0,1,.128.318,3.752,3.752,0,0,0,.361.878.251.251,0,0,0,.272.132A12.373,12.373,0,0,1,52,74.09c.265.036.525.073.75.1A.392.392,0,0,0,52.844,74.2Z"/><path d="M42.238,75.434a.477.477,0,0,0-.116-.035.249.249,0,0,0-.291,0,5.036,5.036,0,0,0-2.167,2.626.251.251,0,0,0,.24.321.262.262,0,0,0,.13-.036,12.288,12.288,0,0,0,1.755-1.254,1.675,1.675,0,0,1,.528-.285l.108-.043a2.047,2.047,0,0,0,.823-.582.25.25,0,0,0-.189-.413,1.883,1.883,0,0,1-.715-.248Z"/><path d="M48.17,78.505c.008-.184.016-.366.019-.545a.25.25,0,0,0-.244-.255c-.8-.019-1.461-.028-2.133-.006a.251.251,0,0,0-.232.184,1.319,1.319,0,0,1-.229.451.246.246,0,0,0-.047.113c-.242,1.728,1.332,1.984,2.373,2.154l.3.058a.193.193,0,0,0,.042,0,.25.25,0,0,0,.242-.316A6.206,6.206,0,0,1,48.17,78.505Z"/><path d="M46.731,74.382a.249.249,0,0,0,.1-.333,3.227,3.227,0,0,1-.308-.756,1.587,1.587,0,0,0-.218-.471l-.049-.08a.25.25,0,0,0-.358-.078c-.162.113-.327.224-.493.335l-.324.22a.336.336,0,0,0-.1.305.534.534,0,0,1,.016.118v2.985a.25.25,0,0,0,.25.25l.315-.006a.249.249,0,0,0,.247-.288A1.833,1.833,0,0,1,46.731,74.382Z"/><path d="M44.2,73.978a.248.248,0,0,0-.257.012l-.7.47c-.041.031-.082.056-.123.082a.251.251,0,0,0-.116.233.248.248,0,0,0,.154.21l.09.036c.092.037.183.073.284.125a1.663,1.663,0,0,0,.519.155h.027a.248.248,0,0,0,.25-.25V74.2A.248.248,0,0,0,44.2,73.978Z"/><path d="M44.368,78.086a.258.258,0,0,0-.264-.008A3.039,3.039,0,0,0,43.032,79.2a.249.249,0,0,0,.187.378,2.793,2.793,0,0,1,.43.069l.02.005c.152.035.327.076.508.11a.242.242,0,0,0,.047,0,.251.251,0,0,0,.246-.292,3.954,3.954,0,0,1,.008-1.15A.255.255,0,0,0,44.368,78.086Z"/><path d="M50.82,76.216a2.42,2.42,0,0,0,.532.076h.058a.251.251,0,0,0,.167-.064,1.538,1.538,0,0,0,.544-.881.385.385,0,0,1,.023-.061.249.249,0,0,0-.2-.347c-.348-.042-.7-.077-1.044-.106a.257.257,0,0,0-.19.064.251.251,0,0,0-.081.185c0,.111.007.227.013.338.005.094.01.184.01.265a1.313,1.313,0,0,1-.025.24A.253.253,0,0,0,50.82,76.216Z"/><path d="M74.41,49.555a.249.249,0,0,0,.246.207,1.315,1.315,0,0,1,.389.059l.006,0a6.711,6.711,0,0,0,1.6.215h.009a.256.256,0,0,0,.187-.083.251.251,0,0,0,.06-.2c-.174-1.207-1.119-2.509-2.343-2.509l-.293-.005-.31-.007a.254.254,0,0,0-.221.124.249.249,0,0,0,0,.253A5.76,5.76,0,0,1,74.41,49.555Z"/><path d="M74.439,44.521a5.367,5.367,0,0,0,.875.081,2.31,2.31,0,0,0,1.084-.229.249.249,0,0,0,.02-.432,6.355,6.355,0,0,0-1.6-.605.255.255,0,0,0-.2.032.253.253,0,0,0-.111.169.276.276,0,0,1-.013.048l-.1.235c-.047.118-.095.236-.147.351a.252.252,0,0,0,.007.221A.249.249,0,0,0,74.439,44.521Z"/><path d="M54.865,76.354a.254.254,0,0,0,.245,0,.251.251,0,0,0,.126-.21c.021-.7.054-1.514.14-2.323a.254.254,0,0,0-.077-.208.251.251,0,0,0-.212-.065,1.922,1.922,0,0,0-1.351.925,1.033,1.033,0,0,0,.017.979h0a1.812,1.812,0,0,0,.907.8C54.728,76.281,54.8,76.316,54.865,76.354Z"/><path d="M75.136,51.405a7.6,7.6,0,0,0,1.528.207,3.5,3.5,0,0,1,.643.076l.248.043h.007l.046,0c.273,0,.405-.319.463-.459a.248.248,0,0,0-.021-.232.253.253,0,0,0-.2-.114,7.482,7.482,0,0,1-1.171-.1,7.939,7.939,0,0,0-1.161-.11l-.358-.018a.566.566,0,0,0-.524.266.25.25,0,0,0,.169.37Z"/><path d="M75.624,59.658a.378.378,0,0,1,.082.146.251.251,0,0,0,.237.171A.228.228,0,0,0,76,59.968c.712-.165,1.352-.3,1.956-.413a.251.251,0,0,0,.184-.146.248.248,0,0,0-.019-.233c-.1-.162-.192-.334-.283-.507a3.565,3.565,0,0,0-.857-1.191,2.791,2.791,0,0,0-.8-.426,1.383,1.383,0,0,1-.811-.562,3.713,3.713,0,0,1-.36-1.461c-.013-.115-.026-.229-.038-.355a.25.25,0,0,0-.179-.239l-.219-.065c-.3-.09-.6-.179-.9-.264-.364-.105-.745-.188-1.129-.272a11.429,11.429,0,0,1-1.688-.458.248.248,0,0,0-.278.068,1.762,1.762,0,0,1-.632.4l-.2.095a.251.251,0,0,0-.115.332,8.8,8.8,0,0,1,.721,2.555.251.251,0,0,0,.244.216c.186,0,.373.011.553.019.164.006.323.013.472.016a29.973,29.973,0,0,1,3.082.168.9.9,0,0,1,.666.386,2.4,2.4,0,0,1,.2,1.8A.25.25,0,0,0,75.624,59.658Z"/><path d="M55.555,72.487c.012-.072.019-.144.023-.192a2.716,2.716,0,0,1,.286-.841.248.248,0,0,0-.107-.349l-.173-.084a11.848,11.848,0,0,0-1.319-.581c-.077-.022-.148-.044-.225-.071a.253.253,0,0,0-.22.026.248.248,0,0,0-.113.189.326.326,0,0,1-.1.228,4.865,4.865,0,0,0-.344.356.242.242,0,0,0-.034.276l.078.224c.058.169.119.339.162.51a.933.933,0,0,0,.071.177.252.252,0,0,0,.052.2.615.615,0,0,1,.073.135.251.251,0,0,0,.215.145.486.486,0,0,1,.188.044.246.246,0,0,0,.112.027.255.255,0,0,0,.086-.015,3.614,3.614,0,0,1,.969-.2.485.485,0,0,0,.075.009A.25.25,0,0,0,55.555,72.487Z"/><path d="M71.59,60.355a.25.25,0,0,0-.229-.148h0c-.5.006-.974.032-1.409.077a.248.248,0,0,0-.223.223,1.594,1.594,0,0,1-.6,1.308c-.589.344-1.9.105-2.948-.087a9.416,9.416,0,0,0-1.462-.2,29.743,29.743,0,0,0-7.837,1.039c-.3.082-.653.168-1.035.262-2.234.549-5.609,1.379-6.846,3.253a.25.25,0,0,0,.178.386l.928.117c.476.054,1.047.252,1.071.9a.248.248,0,0,0,.128.209.243.243,0,0,0,.122.033.253.253,0,0,0,.122-.032,6.4,6.4,0,0,1,1.542-.649,16.435,16.435,0,0,1,4.752-.231c.638.03,1.279.06,1.923.063h0a.253.253,0,0,0,.191-.089,6.01,6.01,0,0,1,3.562-1.953,10.139,10.139,0,0,1,6.853.755.249.249,0,0,0,.365-.218l0-.183c0-.365.009-.725.038-1.077a5.315,5.315,0,0,1,.163-.827.255.255,0,0,0-.015-.17.457.457,0,0,1-.047-.2,3.371,3.371,0,0,1,.67-2.29A.25.25,0,0,0,71.59,60.355Z"/><path d="M57.528,71.782a.25.25,0,0,0-.173-.108.821.821,0,0,0-.661.178c-.463.394-.485,1.281-.5,1.995,0,.149-.006.285-.014.4-.06.779-.091,2.106-.107,3.081a.251.251,0,0,0,.226.253l.527.052.025,0a.25.25,0,0,0,.249-.27,16.915,16.915,0,0,1,.466-5.38A.245.245,0,0,0,57.528,71.782Z"/><path d="M71.907,43.989a2.329,2.329,0,0,0,.265.035c.27.041.593.121.9.2a.272.272,0,0,0,.063.008.25.25,0,0,0,.227-.146l.048-.1c.086-.187.175-.378.233-.534a.582.582,0,0,0,.045-.09.249.249,0,0,0-.187-.324c-.35-.071-.712-.13-1.073-.183a.246.246,0,0,0-.253.123,3.933,3.933,0,0,1-.416.6.25.25,0,0,0,.148.412Z"/><path d="M71.86,52.145a.25.25,0,0,0-.149.319c.027.076.055.151.076.232a.25.25,0,0,0,.175.177c.362.1.736.184,1.11.261a.226.226,0,0,0,.051.005.25.25,0,0,0,.237-.172c.5-1.509.547-4.8-1.13-5.717a.191.191,0,0,0-.123-.03c-.974.01-1.143.081-1.242.16a.25.25,0,0,0,.04.417,3.254,3.254,0,0,1,.616.43,2.677,2.677,0,0,1,.625,1.526c.032.16.062.313.1.455.019.079.045.172.074.274.123.435.33,1.164.034,1.4A1.644,1.644,0,0,1,71.86,52.145Z"/><path d="M49.643,76.994a.252.252,0,0,0,.217-.374.763.763,0,0,1-.091-.466v0a5.883,5.883,0,0,0,0-.653c0-.162-.008-.325,0-.484a.252.252,0,0,0-.239-.258q-.382-.018-.779-.018h0a3.255,3.255,0,0,0-1.634.395,1.3,1.3,0,0,0-.439,1.506.25.25,0,0,0,.245.25c.918.017,1.828.052,2.7.1Z"/><path d="M71.06,46.278a.251.251,0,0,0,.208.113c.486.006.971.012,1.457.012a.249.249,0,0,0,.247-.288,7.007,7.007,0,0,1,.1-.742.251.251,0,0,0-.192-.3l-.1-.02c-.4-.087-.8-.173-1.184-.239a.249.249,0,0,0-.291.265.614.614,0,0,1,0,.167,3.74,3.74,0,0,1-.271.793A.249.249,0,0,0,71.06,46.278Z"/><path d="M73.421,59.425c.347.011.686.022,1.014.029h0a.25.25,0,0,0,.249-.222c.041-.367.077-.895.077-.895a.251.251,0,0,0-.217-.265,10.465,10.465,0,0,0-1.053-.067c-.238-.007-.477-.014-.717-.034-.641-.047-1.291-.047-1.92-.047-.071,0-.157,0-.25-.008a4.774,4.774,0,0,0-.753.01.25.25,0,0,0-.218.262c.011.193.03.408.05.635l.033.389a.248.248,0,0,0,.087.171.265.265,0,0,0,.182.058A30.434,30.434,0,0,1,73.421,59.425Z"/><path d="M77.768,49.85a.249.249,0,0,0,.237.216c.264.012.52.023.772.052a.456.456,0,0,1,.393.326.477.477,0,0,1-.074.473.243.243,0,0,0-.075.146.5.5,0,0,1-.053.176c-.059.118-.113.236-.165.352-.335.738-.524,1.087-1.3.975-.226-.034-.458-.047-.691-.06a5.16,5.16,0,0,1-.865-.094c-.414-.095-.84-.184-1.272-.255a.243.243,0,0,0-.287.2,5.723,5.723,0,0,1-.191.763.253.253,0,0,0,.017.2.246.246,0,0,0,.152.123l.1.026c.047.012.094.024.148.043.338.107.679.219,1.021.331,1.013.333,2.06.677,3.1.92a42,42,0,0,0,8.008,1.289h.009a.254.254,0,0,0,.181-.077A.251.251,0,0,0,87,55.779c-.017-.224-.04-.447-.064-.66s-.045-.429-.057-.619a.267.267,0,0,0-.048-.131c-.249-.341-.45-.64-.634-.944-1.611-2.627-6.091-4.58-8.618-5.511a.246.246,0,0,0-.271.066.25.25,0,0,0-.04.277A5.478,5.478,0,0,1,77.768,49.85Z"/><path d="M62,55.216a15.836,15.836,0,0,0,2.836.053c.395-.038.79-.1,1.172-.167.413-.069.84-.14,1.252-.172a.479.479,0,0,1,.181.021.272.272,0,0,0,.062.017.415.415,0,0,1,.356.286,1.779,1.779,0,0,1-.091,1.655c-.67.974-2.537,1.172-3.589,1.2a.243.243,0,0,0-.2.177.288.288,0,0,0,.076.287,1.789,1.789,0,0,1,.632,1.148.25.25,0,0,0,.247.211h.024a8.463,8.463,0,0,0,2.5-.807c.4-.174.773-.339,1.147-.47a.25.25,0,0,0,.167-.231l.024-.624a.226.226,0,0,0,0-.086.358.358,0,0,1,.2-.388,1.753,1.753,0,0,1,.351-.151.251.251,0,0,0,.169-.27c-.423-3.19-2.124-4.839-4.767-4.641-1.736.13-2.32,1.14-2.9,2.448a1.6,1.6,0,0,0-.062.175.25.25,0,0,0,.029.216A.253.253,0,0,0,62,55.216Z"/><path d="M69,49.463h0c-.378.456-.51.834-.4,1.161.223.641,1.263.694,2.4.694a1.017,1.017,0,0,1,.25.039.241.241,0,0,0,.06.008.251.251,0,0,0,.245-.3c-.015-.073-.034-.146-.051-.22-.029-.119-.06-.242-.08-.371l-.011-.078a3.946,3.946,0,0,0-.273-1.133.961.961,0,0,0-.73-.634C69.866,48.552,69.354,49.044,69,49.463Z"/><path d="M62.034,57.172a.443.443,0,0,1,.118,0,15.311,15.311,0,0,0,1.928.132c1.314,0,2.8-.218,3.008-1.177a.25.25,0,0,0-.061-.222.247.247,0,0,0-.216-.078c-.281.037-.56.085-.838.133a11.677,11.677,0,0,1-1.526.192,20.454,20.454,0,0,1-2.556-.1.24.24,0,0,0-.2.078.246.246,0,0,0-.066.207c.029.21.071.419.118.647A.248.248,0,0,0,62.034,57.172Z"/><path d="M67.052,60.853a9.162,9.162,0,0,0,1.564.175.251.251,0,0,0,.193-.41,5.5,5.5,0,0,1-.047-.77.248.248,0,0,0-.112-.2.252.252,0,0,0-.229-.025c-.268.1-.534.216-.8.329-.3.127-.6.255-.911.372a.25.25,0,0,0,.049.48Z"/><path d="M49.445,68.291c.2-.137.537-.365.68-.334a.246.246,0,0,0,.3-.186.25.25,0,0,0-.186-.3,6.522,6.522,0,0,0-1.259-.158.233.233,0,0,0-.164.052,3.662,3.662,0,0,0-.586.6.25.25,0,0,0,.13.4l.151.041c.137.036.272.073.408.115a.265.265,0,0,0,.074.011.252.252,0,0,0,.122-.031C49.216,68.443,49.328,68.369,49.445,68.291Z"/><path d="M48.441,70.891l-.081.056a.25.25,0,0,0-.057.345,2.7,2.7,0,0,0,1.405.909.272.272,0,0,0,.075.011.248.248,0,0,0,.177-.073.342.342,0,0,0,.055-.08l.008-.02c.306-.7,1.51-1.621,2.23-1.321l.061.024a.248.248,0,0,0,.27-.075c.067-.08.137-.152.208-.226l.076-.08a.249.249,0,0,0-.105-.41c-.589-.188-1.176-.365-1.765-.534a.4.4,0,0,1-.124-.06.254.254,0,0,0-.283,0c-.436.3-.862.606-1.275.905-.254.185-.5.365-.761.548C48.52,70.838,48.479,70.864,48.441,70.891Z"/><path d="M52.374,71.729a.677.677,0,0,0-.81-.052,2.956,2.956,0,0,0-.458.341.25.25,0,0,0,.153.434,8.247,8.247,0,0,1,1.045.142.272.272,0,0,0,.049.005.25.25,0,0,0,.24-.32l-.123-.416A.26.26,0,0,0,52.374,71.729Z"/><path d="M59.881,59.782a2.287,2.287,0,0,1,.091-.416.258.258,0,0,0-.021-.2.252.252,0,0,0-.155-.12,4.8,4.8,0,0,0-1.234-.108.25.25,0,0,0-.109.475c.369.179.722.364,1.056.554a.25.25,0,0,0,.124.033.247.247,0,0,0,.113-.027A.251.251,0,0,0,59.881,59.782Z"/><path d="M58.017,69.546a.245.245,0,0,0,.176.074.254.254,0,0,0,.231-.153,15.355,15.355,0,0,1,.674-1.405.25.25,0,0,0-.206-.37c-.39-.021-.777-.05-1.16-.079a21.251,21.251,0,0,0-2.6-.091.25.25,0,0,0-.08.482,5.056,5.056,0,0,1,.648.3c.314.178.632.335.95.491A11.824,11.824,0,0,1,58,69.529Z"/><path d="M57.14,70.743a.25.25,0,0,0,.228-.148.907.907,0,0,1,.06-.116.247.247,0,0,0,.031-.189.25.25,0,0,0-.113-.156c-.383-.234-.782-.433-1.167-.626-.307-.153-.614-.307-.917-.479a8.2,8.2,0,0,0-.986-.446,6.029,6.029,0,0,1-1.124-.539.253.253,0,0,0-.239-.021c-.26.115-.523.241-.782.385a.25.25,0,0,0,.058.46,15.28,15.28,0,0,1,2.1.673c.29.125.582.264.876.405a12.958,12.958,0,0,0,1.9.787A.248.248,0,0,0,57.14,70.743Z"/><path d="M52.407,77.192l.117.01c.441.038.88.075,1.32.118h.024a.25.25,0,0,0,.111-.474,1.7,1.7,0,0,1-.662-.49c-.053-.07-.108-.146-.162-.232a.262.262,0,0,0-.22-.117.249.249,0,0,0-.212.132,2.55,2.55,0,0,1-.468.624.249.249,0,0,0,.152.428Z"/><path d="M68.362,43.467c.2.035,1.046.159,1.892.283l.036,0a.251.251,0,0,0,.2-.1,2.6,2.6,0,0,1,.355-.37,1.5,1.5,0,0,0,.182-.193.25.25,0,0,0-.167-.417c-2.171-.164-2.533.218-2.639.381a.25.25,0,0,0,.142.413Z"/><path d="M92.243,73.378a.248.248,0,0,0,.187-.156,3.047,3.047,0,0,1,.661-1.146h0l0-.006.022-.023a.247.247,0,0,0,.054-.206c-.032-.169-.059-.34-.086-.511a7,7,0,0,0-.319-1.394,4.434,4.434,0,0,0-2.308-1.966c-.26-.136-.51-.266-.728-.4-.639-.39-1.269-.869-1.878-1.331a11.029,11.029,0,0,0-4.335-2.37.261.261,0,0,0-.208.051.253.253,0,0,0-.092.192c-.015,1.37-.09,2.732-.164,4.05-.075,1.338-.152,2.723-.163,4.11,0,.367,0,.786.01,1.227v.076a.251.251,0,0,0,.164.232,6.1,6.1,0,0,0,1.952.241c.8,0,1.647-.067,2.361-.123.506-.04.943-.074,1.227-.074a18.358,18.358,0,0,0,3.481-.443Z"/><path d="M80.649,57.365a3.51,3.51,0,0,1-.516-.889c-.068-.146-.135-.293-.21-.437a.3.3,0,0,0-.178-.131c-.419-.109-.836-.218-1.241-.338-.383-.116-.765-.235-1.147-.354s-.776-.241-1.166-.36a.25.25,0,0,0-.319.275,1.388,1.388,0,0,0,.946,1.264,2.788,2.788,0,0,1,1.056.794,5.126,5.126,0,0,1,.369.567c.339.57.721,1.212,1.4,1.212a.957.957,0,0,0,.118-.007,6.341,6.341,0,0,0,1.3-.249.2.2,0,0,0,.04-.016c.084-.041.145-.073.2-.094a.25.25,0,0,0,.157-.174A.253.253,0,0,0,81.4,58.2l-.3-.335C80.947,57.7,80.8,57.533,80.649,57.365Z"/><path d="M101.972,73.008c.271-.06.553-.106.834-.151.151-.024.3-.049.449-.075a.25.25,0,0,0,.017-.489,41.436,41.436,0,0,0-5.205-1.006.235.235,0,0,0-.259.15c-.2.459-.437,1-.728,1.536a3.325,3.325,0,0,1-.6.737l-.095.1a.249.249,0,0,0-.062.245.253.253,0,0,0,.185.173c.558.128,1.115.266,1.673.405s1.127.279,1.692.409a.267.267,0,0,0,.056.006.25.25,0,0,0,.239-.322l-.071-.232c-.032-.1-.063-.2-.093-.3a.42.42,0,0,1,.115-.409A3.819,3.819,0,0,1,101.972,73.008Z"/><path d="M99.081,68.218a.25.25,0,0,0-.208.126l-.007.012a.3.3,0,0,1-.078.091.251.251,0,0,0,.153.435c.614.035,1.232.082,1.851.129h.019a.249.249,0,0,0,.248-.282l-.141-1.106a.252.252,0,0,0-.151-.2.249.249,0,0,0-.248.032,4.779,4.779,0,0,1-.773.511c-.036.012-.092.034-.188.072C99.4,68.1,99.178,68.189,99.081,68.218Z"/><path d="M97.015,65.647a.452.452,0,0,1-.2-.328c-.064-.533-.754-.829-1.256-1.046-.1-.044-.2-.083-.264-.117a1.213,1.213,0,0,1-.555-.479.235.235,0,0,0-.095-.1c-.488-.285-1.007-.551-1.509-.809a12.337,12.337,0,0,1-3.514-2.335.247.247,0,0,0-.18-.08c-1.064-.018-2.082-.132-3.065-.243a24.193,24.193,0,0,0-9.027.43.249.249,0,0,0-.007.487l.239.057c1.08.257,2.2.521,3.287.847.152.046.3.087.454.128a3.163,3.163,0,0,1,1.688.826.254.254,0,0,0,.155.084A10.892,10.892,0,0,1,88.1,65.43a22.077,22.077,0,0,0,2.586,1.708,6.821,6.821,0,0,1,2.729,2.148,4.731,4.731,0,0,1,.458,1.645l.013.081a.247.247,0,0,0,.139.187.261.261,0,0,0,.108.024.246.246,0,0,0,.126-.034,7.876,7.876,0,0,1,2.419-.867.249.249,0,0,0,.15-.095.4.4,0,0,1,.142-.114c.809-.42,1.015-2.053.815-2.745a8.469,8.469,0,0,0-.693-1.636A.274.274,0,0,0,97.015,65.647Z"/><path d="M99.546,66.551l-.215-.017c-.165-.013-.363-.029-.562-.052a.259.259,0,0,0-.223.09.252.252,0,0,0-.045.235,3.677,3.677,0,0,1,.11.411.248.248,0,0,0,.12.167.242.242,0,0,0,.125.034.248.248,0,0,0,.08-.013,3.206,3.206,0,0,0,.767-.392.244.244,0,0,0,.083-.272A.28.28,0,0,0,99.546,66.551Z"/><path d="M87.146,74.7c-.306,0-.666.02-1.054.041a12.131,12.131,0,0,1-2.906-.071.259.259,0,0,0-.206.05.251.251,0,0,0-.093.189,11.008,11.008,0,0,1-.308,2.533.249.249,0,0,0,.241.315h0a22.063,22.063,0,0,0,8.6-1.8.256.256,0,0,0,.142-.163c.1-.375.213-.757.34-1.134a.25.25,0,0,0-.276-.327A27.263,27.263,0,0,1,87.146,74.7Z"/><path d="M92.91,75.279a.249.249,0,0,0,.152-.051l.315-.247a4.6,4.6,0,0,1,1.508-.917.262.262,0,0,0,.062-.026c.022-.014.048-.027.074-.04a2.267,2.267,0,0,0,.687-.653c.093-.113.178-.216.241-.277a4.01,4.01,0,0,0,.878-1.405l.054-.128a.25.25,0,0,0-.04-.254A.255.255,0,0,0,96.6,71.2a4.472,4.472,0,0,0-3.074,1.7,9.938,9.938,0,0,0-.853,2.06.249.249,0,0,0,.238.324Z"/><path d="M102.375,65.144a.25.25,0,0,0-.15-.46c-.812.047-1.623.082-2.435.111h-.025c-1.059.042-1.564.043-1.691.03a.236.236,0,0,0-.181,0,.25.25,0,0,0-.149.321h0l.013.034c.247.628.665.59,1.046.556.075-.006.156-.014.245-.017a5.886,5.886,0,0,1,1.882.278A.265.265,0,0,0,101,66a.246.246,0,0,0,.134-.039c.232-.147.463-.3.693-.456C102.008,65.385,102.19,65.263,102.375,65.144Z"/><path d="M112.694,51.422c.054-.682.115-1.254.192-1.8.021-.145.045-.287.068-.429l.061-.378a.25.25,0,0,0-.064-.207.274.274,0,0,0-.2-.08,15.768,15.768,0,0,0-1.762.268c-.519.1-1.056.2-1.573.248-.449.042-.9.091-1.348.14-.8.087-1.628.177-2.441.222a.249.249,0,0,0-.236.242,19.616,19.616,0,0,0,.09,2.874.242.242,0,0,0,.1.172.246.246,0,0,0,.15.05.215.215,0,0,0,.043,0c.785-.136,1.6-.23,2.389-.321a23.881,23.881,0,0,0,4.361-.78A.25.25,0,0,0,112.694,51.422Z"/><path d="M112.514,52.635a.252.252,0,0,0-.221-.046,26.74,26.74,0,0,1-3.82.629c-.844.1-1.716.2-2.562.35a.25.25,0,0,0-.2.3,8.369,8.369,0,0,0,.669,1.885,8.507,8.507,0,0,1,.507,4.1.252.252,0,0,0,.15.245.266.266,0,0,0,.1.02.248.248,0,0,0,.181-.078,7.35,7.35,0,0,1,5.017-2.111.249.249,0,0,0,.236-.25l0-1.217c-.006-1.253-.01-2.436.038-3.624A.251.251,0,0,0,112.514,52.635Z"/><path d="M109.954,47.837a.251.251,0,0,0,.25.257.26.26,0,0,0,.04,0c.27-.044.539-.095.809-.146A13.979,13.979,0,0,1,113,47.673a.25.25,0,0,0,.235-.209c.106-.624.222-1.254.344-1.883a.252.252,0,0,0-.062-.209.265.265,0,0,0-.2-.089h0c-.716.011-1.426.034-2.171.058a.351.351,0,0,1-.37-.272.149.149,0,0,0-.044-.087.352.352,0,0,0-.109-.094.25.25,0,0,0-.358.186c-.048.317-.108.631-.167.944q-.052.275-.1.545a4.033,4.033,0,0,0-.037.866C109.954,47.565,109.958,47.7,109.954,47.837Z"/><path d="M80.214,47.282a12.1,12.1,0,0,1,3.343,1.966,19.519,19.519,0,0,1,2.856,3.219c.3.4.605.789.912,1.17a.247.247,0,0,0,.195.093h.033a.251.251,0,0,0,.2-.148,3.268,3.268,0,0,0,.178-.494c.063-.24.145-.482.228-.723a8.5,8.5,0,0,0,.289-.96.249.249,0,0,0-.081-.244c-.036-.031-.066-.061-.095-.091a24.774,24.774,0,0,0-5.953-4.576.2.2,0,0,0-.124-.028,9.715,9.715,0,0,0-1.947.341.25.25,0,0,0-.029.476Z"/><path d="M98.708,69.711a.233.233,0,0,0-.256.181.733.733,0,0,1-.03.086l0,.007-.07.176a.249.249,0,0,0,.016.219.252.252,0,0,0,.183.121,42.022,42.022,0,0,1,4.945.978.265.265,0,0,0,.063.008.252.252,0,0,0,.25-.256c-.006-.278-.012-.555-.006-.832a.25.25,0,0,0-.213-.252c-1.52-.23-3.1-.327-4.628-.42Z"/><path d="M102.145,69.127q.722.069,1.433.174l.034,0a.252.252,0,0,0,.251-.231c.03-.311.058-.623.1-.929a.251.251,0,0,0-.059-.2.254.254,0,0,0-.184-.087c-.495-.009-1.042-.022-1.376-.03l-.215-.005a.294.294,0,0,0-.185.075.255.255,0,0,0-.071.185c.012.293.024.579.048.817A.251.251,0,0,0,102.145,69.127Z"/><path d="M102.056,60.608a.251.251,0,0,0-.183-.24,8.948,8.948,0,0,0-2.641-.17l-.463.014a.25.25,0,0,0-.23.167,1.543,1.543,0,0,1-.716.8.25.25,0,0,0,.132.463h0c.207,0,.412-.013.589-.022.144-.007.268-.013.355-.013h2.891a.251.251,0,0,0,.25-.259c-.006-.158-.012-.316-.006-.477,0-.025,0-.054.007-.086C102.05,60.726,102.056,60.667,102.056,60.608Z"/><path d="M96.091,43.8a.512.512,0,0,0-.136.078.253.253,0,0,0-.1.247,1.923,1.923,0,0,1-.97,2.318.246.246,0,0,0-.16.206c-.037.314-.06.629-.079.944a.249.249,0,0,0,.25.264.246.246,0,0,0,.157-.055,12.024,12.024,0,0,0,2.661-4.3.25.25,0,0,0-.3-.336,2.467,2.467,0,0,0-.605.227l-.232.124A5.565,5.565,0,0,0,96.091,43.8Z"/><path d="M95.593,61.1c-.155-.414-.314-.843-.435-1.259a2.083,2.083,0,0,0-.5-.864.25.25,0,0,0-.233-.072,29.767,29.767,0,0,1-3.876.568.244.244,0,0,0-.207.1.21.21,0,0,0-.015.213c0,.012.011.047.015.059a.261.261,0,0,0,.066.1,6.328,6.328,0,0,0,.846.681c.727.484,1.5.907,2.247,1.316.473.259.946.518,1.409.792a.251.251,0,0,0,.326-.062,3.446,3.446,0,0,0,.532-.957.263.263,0,0,0,0-.164Z"/><path d="M105.677,45.669l-.035.405a.25.25,0,0,0,.07.2.253.253,0,0,0,.179.075h.016a8.688,8.688,0,0,0,1.5-.276,7,7,0,0,1,1.648-.268c.257,0,.284-.2.363-.8l.019-.144a.251.251,0,0,0-.079-.219.248.248,0,0,0-.224-.059c-.077.018-.158.042-.238.066l-.682.207a16.749,16.749,0,0,1-2.328.589A.25.25,0,0,0,105.677,45.669Z"/><path d="M95.8,48.387a.249.249,0,0,0,.1.446,49.86,49.86,0,0,0,8.43.97h0a.25.25,0,0,0,.25-.241c.045-1.245.142-2.489.234-3.692l.044-.566a.557.557,0,0,0,.033-.144.44.44,0,0,1,.41-.472,9.593,9.593,0,0,0,2.466-.551.25.25,0,0,0-.045-.485c-1.577-.2-3.175-.455-4.722-.7-.8-.124-1.6-.249-2.391-.368-.481-.07-.962-.134-1.443-.2a.25.25,0,0,0-.283.246A8.025,8.025,0,0,1,95.8,48.387Z"/><path d="M85.62,46.016a1.824,1.824,0,0,0-1.368.164.252.252,0,0,0-.119.214.249.249,0,0,0,.121.213c.488.3.913.575,1.3.855a.3.3,0,0,0,.247.024c2.013-.447,5.131.263,7.406.78l.25.056a.215.215,0,0,0,.056.007.253.253,0,0,0,.25-.239c.024-.541.065-1.042.126-1.525a.5.5,0,0,1,.11-.253.259.259,0,0,0,.055-.194.319.319,0,0,1,.276-.386c.424-.078.55-.153.694-.571a1.316,1.316,0,0,0,.008-.976.643.643,0,0,1,.174-.88,5.153,5.153,0,0,1,1.4-.7.251.251,0,0,0-.059-.486c-1-.091-2.009-.17-3.013-.25-1.359-.108-2.765-.219-4.142-.358a.246.246,0,0,0-.273.212,6.071,6.071,0,0,1-1.868,3.635A2.085,2.085,0,0,1,85.62,46.016Z"/><path d="M83.88,45.279a.248.248,0,0,0,.134-.038,1.062,1.062,0,0,1,.3-.14,1.837,1.837,0,0,1,.755.013,3.763,3.763,0,0,0,.516.054,2.241,2.241,0,0,0,1.94-1.339.251.251,0,0,0-.016-.281.248.248,0,0,0-.268-.088l-.155.045a7.6,7.6,0,0,1-1.241.287,11.319,11.319,0,0,0-1.208.239c-.253.06-.506.12-.761.168a.251.251,0,0,0-.2.23l-.041.585a.252.252,0,0,0,.123.231A.249.249,0,0,0,83.88,45.279Z"/><path d="M83.938,43.342a.194.194,0,0,0,.049,0c.227-.045.453-.1.68-.156a8.4,8.4,0,0,1,1.23-.238,5.888,5.888,0,0,0,1.262-.3,7.516,7.516,0,0,1,.815-.229.25.25,0,0,0,.191-.18c.037-.134.067-.263.092-.385a.25.25,0,0,0-.056-.212.232.232,0,0,0-.2-.087,9.893,9.893,0,0,0-1.807.23c-.16.04-.334.077-.513.116a5.232,5.232,0,0,0-1.787.611c-.138.086-.176.25-.205.564a.254.254,0,0,0,.082.208A.247.247,0,0,0,83.938,43.342Z"/><path d="M105.725,48.562c.772-.048,1.554-.131,2.311-.212l.824-.087a.257.257,0,0,0,.218-.2,3.326,3.326,0,0,0,.078-.985l0-.1a.247.247,0,0,0-.088-.186.249.249,0,0,0-.2-.058c-.4.059-.792.137-1.183.215a12.978,12.978,0,0,1-1.924.287.25.25,0,0,0-.237.228l-.064.832a.249.249,0,0,0,.249.27Z"/><path d="M88.854,56.459a.25.25,0,0,0-.388.28,9.351,9.351,0,0,0,.847,1.851.25.25,0,0,0,.214.121.273.273,0,0,0,.041,0c.012,0,.062-.017.074-.02a25.311,25.311,0,0,0,2.671-.237.25.25,0,0,0,0-.495A7.383,7.383,0,0,1,88.854,56.459Z"/><path d="M92.979,54.743a.244.244,0,0,0,.16.058l.034,0a.25.25,0,0,0,.172-.107q.114-.165.243-.348a.248.248,0,0,0,.043-.108,10.913,10.913,0,0,0,.114-1.263c.023-.755.014-1.522,0-2.264,0-.405-.01-.81-.01-1.214a.25.25,0,0,0-.209-.247l-.517-.082-.444-.07a.25.25,0,0,0-.29.24,15.947,15.947,0,0,1-.149,1.917l-.033.22a7.347,7.347,0,0,1-.334,1.519.652.652,0,0,1-.057.1.251.251,0,0,0,.008.3A9.193,9.193,0,0,0,92.979,54.743Z"/><path d="M96.367,60.625l.015.049a.246.246,0,0,0,.139.158.253.253,0,0,0,.1.021.239.239,0,0,0,.111-.027,1.277,1.277,0,0,0,.91-1.473,1.18,1.18,0,0,0-.517-.794,1.744,1.744,0,0,0-1.338-.035.251.251,0,0,0-.17.158.254.254,0,0,0,.034.23,3.373,3.373,0,0,1,.2.316A7.731,7.731,0,0,1,96.367,60.625Z"/><path d="M94.64,57.89a.252.252,0,0,0,.155.054.245.245,0,0,0,.071-.011c.1-.03.215-.066.336-.1a5.093,5.093,0,0,1,1.871-.36.244.244,0,0,0,.189-.057.252.252,0,0,0,.088-.176.429.429,0,0,1,.064-.191.384.384,0,0,0,.03-.347c-.119-.3-.621-.506-1.338-.713l-.088-.026a3.276,3.276,0,0,0-1.6.016L94.261,56a.249.249,0,0,0-.2.186c-.057.223-.117.447-.177.673l-.045.172a.247.247,0,0,0,.064.241.48.48,0,0,0,.042.035C94.177,57.516,94.408,57.706,94.64,57.89Z"/><path d="M87.505,56.9a.25.25,0,0,0-.109,0,31.5,31.5,0,0,1-5.868-.6.251.251,0,0,0-.254.1.248.248,0,0,0,0,.274,5.075,5.075,0,0,0,.513.687c.055.059.115.12.178.184.263.264.56.564.574.873a.852.852,0,0,1-.036.293.26.26,0,0,0,.266.321,23.414,23.414,0,0,1,3.579.223c.658.074,1.34.151,2.037.2H88.4a.25.25,0,0,0,.214-.379,10.4,10.4,0,0,1-.925-2.019A.251.251,0,0,0,87.505,56.9Z"/><path d="M89.477,52.228a.25.25,0,0,0-.412.109c-.074.247-.157.491-.238.726l-.082.241c-.136.42-.3.828-.45,1.206l-.006.016a.249.249,0,0,0,.045.28,6.68,6.68,0,0,0,4.392,2.329h.02a.248.248,0,0,0,.238-.176c.083-.266.161-.538.232-.8a.247.247,0,0,0-.065-.241.139.139,0,0,0-.066-.046,11.523,11.523,0,0,1-2.515-2.487A11.629,11.629,0,0,0,89.477,52.228Z"/><path d="M98.271,56.522a.251.251,0,0,0,.131.142.265.265,0,0,0,.1.022.242.242,0,0,0,.091-.018,3.645,3.645,0,0,1,.473-.158,1.767,1.767,0,0,0,.818-.5c.077-.071.156-.144.236-.207a1.952,1.952,0,0,0,.666-.773c.023-.046.056-.1.091-.157l.077-.128a.25.25,0,0,0-.175-.372c-.522-.089-1.051-.234-1.56-.374a12.814,12.814,0,0,0-2.149-.459c-.157-.016-.291-.034-.409-.05a1.439,1.439,0,0,0-1.508.455,10.171,10.171,0,0,0-.743.786.249.249,0,0,0-.033.279.236.236,0,0,0,.247.133,4.032,4.032,0,0,1,2.717.394A2.224,2.224,0,0,1,98.271,56.522Z"/><path d="M71.078,71.381a.249.249,0,0,0-.391.111,3.459,3.459,0,0,0-.164.931,2.456,2.456,0,0,1-.215.982l-.344.665a.248.248,0,0,0,.214.373.236.236,0,0,0,.159-.063c.1-.061.2-.12.3-.18l.19-.114a5.158,5.158,0,0,0,.776-.664l.079-.077a.412.412,0,0,1,.16-.1A.252.252,0,0,0,72,72.924,3.31,3.31,0,0,0,71.078,71.381Z"/><path d="M73.165,69.873a.494.494,0,0,0-.124-.13,3.012,3.012,0,0,0-2.379-1.024A2.714,2.714,0,0,0,68.8,70.156a.25.25,0,0,0,.351.34c.757-.508,1.817-.917,2.56.04,1.854,2.39,2.079,5.415.688,9.247-.63,1.722-2.007,2.658-3.259,2.231a.251.251,0,0,0-.277.393,2.412,2.412,0,0,0,1.828,1.068h.071a2.8,2.8,0,0,0,2.068-1.5,8.167,8.167,0,0,0,.986-2.164,17.169,17.169,0,0,0-.024-8.207A16.58,16.58,0,0,0,73.165,69.873Z"/><path d="M71.993,77.237c-.142,0-.267.01-.383.015a3.315,3.315,0,0,1-.659-.007h-.01a3.153,3.153,0,0,1-.487-.1.252.252,0,0,0-.3.158c-.026.074-.053.149-.085.218a.355.355,0,0,0,.069.309,6.043,6.043,0,0,1,.5.7.243.243,0,0,0,.049.061,2.205,2.205,0,0,0,.319.246,4.091,4.091,0,0,1,.385.275.249.249,0,0,0,.225.048.248.248,0,0,0,.168-.155,13.432,13.432,0,0,0,.453-1.462.246.246,0,0,0-.049-.215A.217.217,0,0,0,71.993,77.237Z"/><path d="M72.477,76.173a6.878,6.878,0,0,0-.1-1.81.251.251,0,0,0-.165-.191.247.247,0,0,0-.247.05,6.691,6.691,0,0,1-.986.753l-.135.086c-.175.111-.339.215-.507.3a.249.249,0,0,0-.129.28,3.527,3.527,0,0,1,.071.417.25.25,0,0,0,.175.209,2.185,2.185,0,0,0,.722.122c.175,0,.288,0,.472,0l.471,0a.413.413,0,0,0,.106.019A.251.251,0,0,0,72.477,76.173Z"/><path d="M72.054,83.729a3.59,3.59,0,0,1-1.746.367c-2.75-.067-3.426-3.91-3.751-5.757-.431-2.5-.351-7.131,1.7-8.885a4.911,4.911,0,0,1,2.9-1.479.25.25,0,0,0,.134-.456,2.192,2.192,0,0,0-1.847-.294A5.781,5.781,0,0,0,66.2,70.237a14.759,14.759,0,0,0-1.108,6.668c-.02,1.887.157,6.47,2.22,8.263a2.825,2.825,0,0,0,1.916.714,3.753,3.753,0,0,0,.577-.046,5.344,5.344,0,0,0,2.557-1.727.25.25,0,0,0-.3-.38Z"/><path d="M68.03,78.23a.25.25,0,0,0-.288.308,7.055,7.055,0,0,0,.347,1.055.25.25,0,0,0,.229.152h.008a.251.251,0,0,0,.228-.166,3.478,3.478,0,0,0,.173-1.071.252.252,0,0,0-.081-.192.259.259,0,0,0-.2-.065A1.506,1.506,0,0,1,68.03,78.23Z"/><path d="M69.4,71.392a3.716,3.716,0,0,0-1.724,1.989l0,.006c-.015.044-.028.09-.04.136l-.031.107c-.046.2-.094.391-.135.586a.249.249,0,0,0,.328.287,1.915,1.915,0,0,1,.81-.114.258.258,0,0,0,.208-.086,3.053,3.053,0,0,0,.4-.626l.069-.133c.029-.052.066-.112.1-.176a1.739,1.739,0,0,0,.329-.8l0-.095a5.367,5.367,0,0,1,.053-.815.249.249,0,0,0-.1-.245A.253.253,0,0,0,69.4,71.392Z"/><path d="M68.991,76.845h0a1.4,1.4,0,0,0,.039-1.336.787.787,0,0,0-1.113-.122.246.246,0,0,0-.1.117c-.016.037-.037.079-.048.1a1.523,1.523,0,0,0,.156,1.636.623.623,0,0,0,.408.174.465.465,0,0,0,.083-.007c.283-.049.439-.32.564-.538l-.2-.152h0Z"/><path d="M69.532,79.144a1.975,1.975,0,0,1-.1.493h0l-.072.194c-.1.266-.2.538-.278.81a.25.25,0,0,0,.153.306,1.378,1.378,0,0,0,.471.082,1.963,1.963,0,0,0,1.456-.753.249.249,0,0,0-.11-.4.442.442,0,0,1-.161-.1c-.12-.105-.243-.2-.366-.288a2.849,2.849,0,0,1-.546-.483.25.25,0,0,0-.444.135Z"/><path d="M39.8,81.331a.25.25,0,0,0,.2.105.256.256,0,0,0,.127-.035,4.163,4.163,0,0,0,1.891-2.577v0a1.167,1.167,0,0,1,.065-.138l.051-.1a.25.25,0,0,0-.388-.3,8.327,8.327,0,0,1-1.326.841c-.263.145-.525.289-.788.456l.127.212h0l-.2-.175a.248.248,0,0,0-.12.2c-.024.355-.042.717-.048,1.084a.253.253,0,0,0,.15.233A.618.618,0,0,1,39.8,81.331Z"/><path d="M64.243,74.534h0c.128-2.332,1.372-7.166,3.762-8.31a1.132,1.132,0,0,0,.138-.055.25.25,0,0,0-.058-.467,11.327,11.327,0,0,0-4.9.105c-4.641.971-5.525,8.335-5.226,11.749a.25.25,0,0,0,.22.226c.908.106,1.828.211,2.748.31a.463.463,0,0,1,.276.128.249.249,0,0,0,.154.072.352.352,0,0,1,.1.02.247.247,0,0,0,.075.021.438.438,0,0,1,.327.179.323.323,0,0,1,.009.291,6.88,6.88,0,0,0-.334,1.671c-.025.228-.051.457-.088.685s-.092.488-.148.735a8.041,8.041,0,0,0-.216,1.292l-.019.069a.249.249,0,0,0,0,.127.505.505,0,0,1,.012.121.244.244,0,0,0,.026.11l.064.131c.285.578.717,1.452.265,1.9a.6.6,0,0,1-.059.039l-.056.035a.251.251,0,0,0,.082.452,9.874,9.874,0,0,0,2.237.217c.543,0,1.089-.025,1.627-.05.418-.019.829-.038,1.224-.044a.249.249,0,0,0,.163-.436C64.031,83.517,64.094,77.159,64.243,74.534Z"/><path d="M49.135,84.027a.16.16,0,0,0,0-.044.251.251,0,0,0-.2-.245c-.726-.148-1.451-.312-2.175-.475a38.657,38.657,0,0,0-6.218-1.051.229.229,0,0,0-.166.05,3.608,3.608,0,0,0-.878.918.251.251,0,0,0,.165.382c2.9.529,5.469.943,7.849,1.266l.033,0a.254.254,0,0,0,.141-.043,2.651,2.651,0,0,1,1.226-.467.255.255,0,0,0,.229-.255v0c0-.006.007-.009.007-.015S49.136,84.035,49.135,84.027Z"/><path d="M51.012,84.1c-.25-.035-.5-.075-.749-.116a.262.262,0,0,0-.29.23.917.917,0,0,1-.016.1.249.249,0,0,0,.1.263,1.387,1.387,0,0,1,.377.393,3.341,3.341,0,0,1,.207.347c0,.007.031.052.035.058s.037.057.043.064a.292.292,0,0,0,.226.089.3.3,0,0,0,.088-.012l.074-.017a.249.249,0,0,0,.182-.262c-.023-.279-.041-.586-.057-.906A.252.252,0,0,0,51.012,84.1Z"/><path d="M60.536,79.2a54.132,54.132,0,0,0-6.079.8C51.832,80.522,52,83.23,52.1,84.848a.251.251,0,0,0,.1.186.254.254,0,0,0,.148.048.213.213,0,0,0,.061-.008q3.6-.909,7.215-1.807l.451-.112a.25.25,0,0,0,.189-.22,9.077,9.077,0,0,1,.179-1.05,10.383,10.383,0,0,0,.187-1.09c.045-.43.091-.875.169-1.3a.25.25,0,0,0-.268-.294Z"/><path d="M56.025,78.782a.25.25,0,0,0,0-.495,51.355,51.355,0,0,0-6.734-.564h0a.249.249,0,0,0-.25.245c-.005.288-.02.539-.034.767a3.4,3.4,0,0,0,.128,1.536c.285.728,1.764.873,2.025.891a.749.749,0,0,0,.077.023.291.291,0,0,0,.049,0,.252.252,0,0,0,.236-.166,2.245,2.245,0,0,1,1.347-1.47A16.608,16.608,0,0,1,56.025,78.782Z"/><path d="M60.141,84.01l-2.59.649q-1.671.418-3.34.838a.251.251,0,0,0-.183.3c.1.477.263.622.662.622a3.415,3.415,0,0,0,.392-.029,8.787,8.787,0,0,0,1.958-.566l.4-.149a11.941,11.941,0,0,1,2.18-.483c.287-.045.576-.09.867-.145a.246.246,0,0,0,.169-.118.252.252,0,0,0,.023-.206,4.77,4.77,0,0,0-.253-.577A.253.253,0,0,0,60.141,84.01Z"/><path d="M105.177,63.5l.042-.095c.113-.258.227-.519.351-.766a.253.253,0,0,0-.01-.243.25.25,0,0,0-.213-.119H102.7a.243.243,0,0,0-.038,0,.648.648,0,0,1-.2,0H99.582c-.256,0-.538.019-.832.038a6.059,6.059,0,0,1-2.066-.1.251.251,0,0,0-.3.131,3.569,3.569,0,0,1-.517.76.253.253,0,0,0-.038.26l.036.088a.251.251,0,0,0,.145.162l.11.046a1.678,1.678,0,0,0,.469.235,1.634,1.634,0,0,1,.282.123.252.252,0,0,0,.13.036.237.237,0,0,0,.07-.01A.944.944,0,0,1,97.34,64a52.216,52.216,0,0,0,7.377-.37.538.538,0,0,1,.179.008A.245.245,0,0,0,105.177,63.5Z"/><path d="M113.884,68.718c.625-4.022,2.257-7.307,4.156-8.371a.25.25,0,0,0-.028-.45,12.35,12.35,0,0,0-4.186-.949c-2.636,0-5.567.244-7,3.153a19.245,19.245,0,0,0-1.891,6.537c-.279,2.318-.554,7.835,2.9,8.981a14,14,0,0,0,3.171.564,20.392,20.392,0,0,1,2.074.275,14.887,14.887,0,0,0,2.263.286h.01a.25.25,0,0,0,.182-.421C113.87,76.546,113.238,72.866,113.884,68.718Z"/><path d="M104.226,65.092a10.749,10.749,0,0,0-2.354,1.448h0l-.015.013a.251.251,0,0,0,.231.421c.269,0,.6.009.959.019.284.008.585.016.885.021h0a.249.249,0,0,0,.245-.2c.071-.353.176-.71.279-1.054l.108-.373a.25.25,0,0,0-.342-.3Z"/><path d="M120.676,65.1c-.29-.127-.658-.008-1.136.357a.249.249,0,0,0-.051.345c.636.875.435,2.775.314,3.91l-.045.446a6.22,6.22,0,0,1-1.508,3.268.25.25,0,0,0,0,.354.775.775,0,0,0,.558.238.9.9,0,0,0,.2-.023,1.917,1.917,0,0,0,1.158-1.233,14.051,14.051,0,0,0,.75-4.52c.013-.288.046-.583.079-.879a8,8,0,0,0,.072-1.591A.739.739,0,0,0,120.676,65.1Z"/><path d="M121.568,62.511l0-.011a4.361,4.361,0,0,0-1.444-1.489.25.25,0,0,0-.082-.036,2.27,2.27,0,0,0-1.8.459,7.464,7.464,0,0,0-2.792,3.864c-.08.5-.194,1.026-.3,1.533a14.816,14.816,0,0,0-.453,3.107c0,.286,0,.594-.01.916-.044,2.733-.106,6.477,2.611,7.681a.253.253,0,0,0,.1.022.255.255,0,0,0,.061-.008,4.354,4.354,0,0,0,3.059-2.589C122.312,71.872,123.878,67.466,121.568,62.511Zm-2.464,12.7a1.242,1.242,0,0,1-1.148-.186c-1.3-.988-1.333-4.438-1.333-4.828,0-2.361,1-5.231,3.2-5.954a2.584,2.584,0,0,1,.8-.148,1.032,1.032,0,0,1,.65.195c.7.545.6,2.168.525,3.353-.013.2-.025.4-.033.587C121.811,70.381,121.321,74.6,119.1,75.215Z"/><path d="M103.959,73.569a.253.253,0,0,0-.189-.038c-.266.054-.538.1-.807.144l-.321.054h0l-.166.03a5.77,5.77,0,0,0-1.383.37.252.252,0,0,0-.132.3c.057.2.1.395.142.6a.249.249,0,0,0,.245.2l.029,0c.195-.023.392-.04.587-.057.35-.03.712-.062,1.065-.126.215-.038.43-.08.647-.122l.38-.073a.249.249,0,0,0,.165-.112.247.247,0,0,0,.031-.2c-.069-.264-.132-.533-.183-.809A.247.247,0,0,0,103.959,73.569Z"/><path d="M78.124,66.929a.41.41,0,0,0-.3-.339c-.211-.062-.418-.105-.626-.147-.13-.026-.259-.052-.395-.086-.59-.131-1.187-.24-1.783-.349l-1.03-.189c-.016-.007-1.787-.476-2.054-.184-.078.089-.156.174-.235.259l-.118.13a.247.247,0,0,0-.064.188.252.252,0,0,0,.093.176,7.617,7.617,0,0,1,2.4,3.288l.023.073a.25.25,0,0,0,.233.157.213.213,0,0,0,.061-.008A8.752,8.752,0,0,0,77,68.78C77.105,68.706,78.218,67.516,78.124,66.929Z"/><path d="M119,69.161a6.7,6.7,0,0,0-.072-2.639.253.253,0,0,0-.158-.142.25.25,0,0,0-.211.031.363.363,0,0,0-.1.12l0,0a7.953,7.953,0,0,0-.981,4.135,6.521,6.521,0,0,0,.129,1.544.25.25,0,0,0,.452.086,5.2,5.2,0,0,0,.908-2.583C118.962,69.583,118.979,69.39,119,69.161Z"/><path d="M101.163,76.307s-.038-.06-.042-.064l-.034-.059a.327.327,0,0,0-.144-.1.257.257,0,0,0-.224-.039.417.417,0,0,1-.193.006c-.782-.157-1.567-.36-2.326-.555-.7-.181-1.431-.369-2.16-.521-.919-.2-1.875.459-2.711,1.037a6.587,6.587,0,0,1-1.218.73.354.354,0,0,1-.255.011.252.252,0,0,0-.185,0A22.568,22.568,0,0,1,82.9,78.6a.25.25,0,0,0-.246.293,1.434,1.434,0,0,1-.382,1.164.25.25,0,0,0,.195.406.269.269,0,0,0,.04,0l.584-.095c3.739-.608,7.6-1.237,11.371-2.079.819-.186,1.669-.322,2.49-.454a29.534,29.534,0,0,0,3.453-.7c.24-.07.5-.146.771-.222a.25.25,0,0,0,.151-.36A2.04,2.04,0,0,0,101.163,76.307Z"/><path d="M75,71.888c.172-.085.358-.158.538-.231a4.39,4.39,0,0,0,.793-.375c.329-.215.7-.407,1.054-.593a8.79,8.79,0,0,0,1.6-.985.6.6,0,0,1,.184-.1.249.249,0,0,0,.168-.2c.134-.926.228-1.767.289-2.572l.011-.152c.185-2.361.073-2.483-.2-2.532-.349-.059-.706-.106-1.066-.154-.493-.066-1-.133-1.487-.231-1.225-.253-3.251-.59-4.735-.827a.25.25,0,0,0-.277.168,3.746,3.746,0,0,0-.257,1.2l-.006.188a.259.259,0,0,0,.112.192.289.289,0,0,0,.229.043.728.728,0,0,1,.09-.017,5.166,5.166,0,0,1,1.731.193c.154.035.3.068.449.1l.77.156c.693.14,1.388.282,2.083.4l.216.033a2.51,2.51,0,0,1,1.228.389,1.566,1.566,0,0,1,.389,1.115,2.838,2.838,0,0,1-.717,1.873A8.465,8.465,0,0,1,74.63,70.7a.241.241,0,0,0-.155.118.249.249,0,0,0-.024.194c.07.235.138.475.19.71a.25.25,0,0,0,.135.172.262.262,0,0,0,.109.024A.247.247,0,0,0,75,71.888Z"/><path d="M75.089,76.166a.237.237,0,0,0,.194.065.526.526,0,0,1,.255.036c.087.036.178.066.268.1a1.914,1.914,0,0,1,.348.139,1.791,1.791,0,0,1,.173.112,1.451,1.451,0,0,0,.462.243,3.473,3.473,0,0,0,.8.1,1.856,1.856,0,0,0,.371-.033.248.248,0,0,0,.2-.214c.042-.338.088-.671.135-1.008l.018-.124a.252.252,0,0,0-.185-.276c-.364-.1-.73-.211-1.093-.325-.235-.074-.47-.148-.7-.217-.151-.044-.306-.1-.464-.162-.178-.068-.36-.137-.544-.19a.252.252,0,0,0-.223.044.247.247,0,0,0-.1.206c.017.408.018.839.006,1.319A.248.248,0,0,0,75.089,76.166Z"/><path d="M75.1,73.5a5.853,5.853,0,0,1,.824.242c.2.071.412.142.626.2h0c.307.08.61.178.913.276.247.08.494.16.743.231a.227.227,0,0,0,.068.009.251.251,0,0,0,.247-.209c.087-.533.179-1.063.271-1.594q.131-.752.256-1.5a.25.25,0,0,0-.371-.257c-.2.111-.393.218-.59.325-.373.2-.758.41-1.121.648l-.057.038a5.808,5.808,0,0,1-1.125.629c-.07.027-.141.051-.212.075s-.167.057-.259.095c-.031.014-.051.023-.029.023a.254.254,0,0,0-.182.084.334.334,0,0,1-.089.061.248.248,0,0,0-.135.25l.017.159A.248.248,0,0,0,75.1,73.5Z"/><path d="M82.4,63.611a.244.244,0,0,0-.055-.2c-.729-.864-2.654-1.133-4.2-1.349-.519-.072-.966-.135-1.262-.208-.4-.1-.8-.218-1.192-.337-.5-.149-1.013-.3-1.53-.419-.859-.2-1.809-.332-2.224.561a.247.247,0,0,0,.013.236.252.252,0,0,0,.2.119,31.685,31.685,0,0,1,8.029,1.458.369.369,0,0,1,.249.28,21.687,21.687,0,0,1-.521,8,.25.25,0,0,0,.18.29A4.637,4.637,0,0,1,81.3,72.6c.095.059.194.114.291.168l.124.07a.251.251,0,0,0,.373-.194c.271-2.869.294-5.75.294-8.948Z"/><path d="M81.753,73.942a2.153,2.153,0,0,0-.892-.637l-.152-.074h0l-.182-.094a4.313,4.313,0,0,0-.547-.257.25.25,0,0,0-.207.017.255.255,0,0,0-.123.167c-.287,1.389-.557,2.744-.706,4.06a.455.455,0,0,1-.343.4.259.259,0,0,0-.113.071.5.5,0,0,1-.175.123,3.175,3.175,0,0,1-1.592,0,2.866,2.866,0,0,1-.713-.326l-.148-.084a3.946,3.946,0,0,0-.575-.245.256.256,0,0,0-.222.027.253.253,0,0,0-.112.194c-.015.285-.033.571-.056.867a.249.249,0,0,0,.058.183.348.348,0,0,1,.081.193.249.249,0,0,0,.085.166,3.383,3.383,0,0,0,2.083.494,12.048,12.048,0,0,0,2.364-.252c1.993-.47,2.1-1.946,2.21-3.373.025-.319.048-.642.093-.957.019-.116.03-.238.043-.36a.249.249,0,0,0-.088-.216A.393.393,0,0,1,81.753,73.942Z"/><path d="M81.188,79.305a6.217,6.217,0,0,1-1.873.64.25.25,0,0,0-.083.46,3.311,3.311,0,0,0,.388.209h0a.513.513,0,0,0,.2.037A3.028,3.028,0,0,0,81.5,79.69a.25.25,0,0,0-.309-.385Z"/><path d="M47.247,67.224a2.983,2.983,0,0,0-1.78.338.249.249,0,0,0,.143.454,11.4,11.4,0,0,1,1.324.074.137.137,0,0,0,.029,0,.253.253,0,0,0,.2-.1l.274-.369a.249.249,0,0,0-.189-.4Z"/><path d="M29.583,70.525a.251.251,0,0,0-.248.148,1.4,1.4,0,0,1-.235.353.249.249,0,0,0,.1.4,5.877,5.877,0,0,1,.578.252l.064.065a.246.246,0,0,0,.177.073.243.243,0,0,0,.134-.039q.445-.285.87-.587a.243.243,0,0,0,.094-.256.258.258,0,0,0-.2-.2A11.486,11.486,0,0,0,29.583,70.525Z"/><path d="M24.742,74.713a.25.25,0,0,0,.158.135.272.272,0,0,0,.069.009.247.247,0,0,0,.136-.041c.783-.512,1.619-1,2.5-1.512q.593-.342,1.187-.694a.251.251,0,0,0-.03-.445l-.147-.066a2.508,2.508,0,0,0-.341-.14.72.72,0,0,1-.137-.071.251.251,0,0,0-.242-.009c-.27.136-.547.256-.818.373-.146.064-.291.127-.432.191a8.767,8.767,0,0,1-2.692.7.25.25,0,0,0-.1.461A2.426,2.426,0,0,1,24.742,74.713Z"/><path d="M33.118,68.329a.265.265,0,0,0,.068.009.244.244,0,0,0,.142-.045.248.248,0,0,0,.107-.184,1.357,1.357,0,0,0-.343-1.222,1.925,1.925,0,0,0-1.3-.287l-.192,0a4.92,4.92,0,0,1-.775-.08c-.153-.023-.307-.047-.46-.064a.284.284,0,0,1-.067-.013.249.249,0,0,0-.3.114.478.478,0,0,1-.054.064c-.061.062-.117.117-.173.179a.251.251,0,0,0,.087.4A25.564,25.564,0,0,0,33.118,68.329Z"/><path d="M28.757,67.6a.688.688,0,0,0-.28.615.25.25,0,0,0,.217.261c.6.078.783.194.788.5l.018.486a.25.25,0,0,0,.223.239c.3.034.608.083.963.14.149.021.3.055.454.088a4.588,4.588,0,0,0,.788.124.428.428,0,0,1,.207.074.289.289,0,0,0,.153.044.336.336,0,0,0,.176-.053A1.676,1.676,0,0,0,33,69.152a.252.252,0,0,0-.231-.225,4.97,4.97,0,0,1-1.371-.365c-.224-.083-.448-.165-.677-.234a4.758,4.758,0,0,1-1.049-.449l-.141-.087C29.275,67.63,29.011,67.465,28.757,67.6Z"/><path d="M24.024,63.254a6.791,6.791,0,0,0-1.318,2.113.252.252,0,0,0,.032.243.262.262,0,0,0,.223.1,1.157,1.157,0,0,0,.221-.034,3.145,3.145,0,0,1,.773-.05c.139,0,.276,0,.411,0a6.032,6.032,0,0,0,.913-.138l.238-.048a.408.408,0,0,1,.419.144.254.254,0,0,0,.246.084,3.836,3.836,0,0,1,.88-.054h.2c.675,0,1.069.025,1.33.578a.957.957,0,0,0,.038.091.256.256,0,0,0,.2.119.155.155,0,0,0,.031,0,.3.3,0,0,0,.129-.036v0a.255.255,0,0,0,.1-.088l.054-.08c.051-.078.1-.156.152-.248a.307.307,0,0,1,.1-.111.25.25,0,0,0,.1-.175,3.854,3.854,0,0,1,.078-.469.261.261,0,0,0-.007-.133L29.535,65a3.309,3.309,0,0,0-2.386-2.516A2.987,2.987,0,0,0,24.024,63.254Z"/><path d="M27.744,67.775a.23.23,0,0,0,.058.007.251.251,0,0,0,.25-.256,2.534,2.534,0,0,0-.116-.735,2.5,2.5,0,0,0-.107-.277.249.249,0,0,0-.226-.145l-.5,0c-.343-.015-.914-.037-1.1.4a1.334,1.334,0,0,0-.093.554.251.251,0,0,0,.237.25A8.886,8.886,0,0,1,27.744,67.775Z"/><path d="M24.254,68.365a.263.263,0,0,0-.223.117.25.25,0,0,0-.009.251,4.535,4.535,0,0,1,.585,2.225,1.267,1.267,0,0,1-.263.765.247.247,0,0,0-.015.283.246.246,0,0,0,.26.114l.213-.038c.147-.025.3-.051.447-.087,1.145-.269,3.274-.769,3.382-2.793a.254.254,0,0,0-.113-.223,5.151,5.151,0,0,0-2.477-.521c-.185-.008-.36-.016-.521-.028C25.1,68.4,24.678,68.383,24.254,68.365Z"/><path d="M22.269,68.378a.244.244,0,0,0-.273.18l-.119.566a.452.452,0,0,1-.1.234.284.284,0,0,0-.043.085c-.192.7-.383,1.446-.616,2.432a.25.25,0,0,0,.243.308.26.26,0,0,0,.04,0,3.429,3.429,0,0,0,2.112-.87c.446-.531.113-1.581-.12-2.01A1.461,1.461,0,0,0,22.269,68.378Z"/><path d="M24.83,67.565h0a.25.25,0,0,0,.25-.237,3.075,3.075,0,0,1,.085-.632.251.251,0,0,0-.052-.228.262.262,0,0,0-.218-.086c-.222.026-.444.04-.67.054-.132.008-.267.017-.4.027a6.581,6.581,0,0,0-.777.115.693.693,0,0,1-.173.014.25.25,0,0,0-.246.137.411.411,0,0,0-.035.116,1.17,1.17,0,0,0-.039.147c-.005.022-.009.044-.014.062a.25.25,0,0,0,.2.4h.012c.321,0,.66.026,1.011.053S24.469,67.56,24.83,67.565Z"/><path d="M47.239,56.345c.711.061,1.377.137,2.034.233a.231.231,0,0,0,.037,0,.253.253,0,0,0,.157-.056.248.248,0,0,0,.092-.178,2.69,2.69,0,0,1,.063-.385,1.044,1.044,0,0,0-.229-1.125,2.061,2.061,0,0,0-1.045-.4l-.839-.171a.241.241,0,0,0-.207.052.246.246,0,0,0-.092.193l0,.148a1.87,1.87,0,0,1-.019.408c-.084.349-.137.7-.179.989a.248.248,0,0,0,.225.284Z"/><path d="M40.085,62.172a.246.246,0,0,0,.248,0c.355-.2.71-.407,1.07-.6a.248.248,0,0,0,.122-.289,3.56,3.56,0,0,1,.156-2.564,1.342,1.342,0,0,1,.887-.652,7.852,7.852,0,0,1,2.028-.054c.328.019.649.036.949.036a25.834,25.834,0,0,1,3.206.263l.095-.225h0l-.03.257a.255.255,0,0,0,.19,0c.1-.037.189-.07.287-.1a.252.252,0,0,0,.183-.228c0-.122.011-.243.011-.358a.25.25,0,0,0-.211-.247,44.456,44.456,0,0,0-7.091-.384c-1.659,0-1.819.525-2.052,1.816l-.031.172a16.12,16.12,0,0,0-.145,2.936A.251.251,0,0,0,40.085,62.172Z"/><path d="M55.636,58.386c.4.107.781.222,1.153.352a.232.232,0,0,0,.082.014.252.252,0,0,0,.206-.108,1.254,1.254,0,0,1,.731-.431,4.721,4.721,0,0,1,2.338.05.393.393,0,0,1,.127.069.248.248,0,0,0,.332-.04c.113-.129.23-.252.348-.364a.249.249,0,0,0,.072-.23c-.046-.24-.111-.471-.173-.7-.055-.2-.109-.39-.149-.584a.25.25,0,0,0-.245-.2c-.182,0-.388-.005-.606-.009-.487-.011-1.036-.023-1.575.016a3.119,3.119,0,0,1-.767.041.245.245,0,0,0-.166-.1.242.242,0,0,0-.276.18,3.505,3.505,0,0,1-.144.4,2.634,2.634,0,0,1-1.341,1.178.25.25,0,0,0,.053.463Z"/><path d="M45.451,60.388a4.938,4.938,0,0,0-.523.284.251.251,0,0,0-.117.215,5.823,5.823,0,0,1-.139,1.543l-.025.095a7,7,0,0,0-.209.994.258.258,0,0,0,.083.2.279.279,0,0,0,.194.075h.02c.146-.011.3-.022.442-.039a.25.25,0,0,0,.206-.162,8.923,8.923,0,0,0,.307-1.554c.046-.464.081-.935.117-1.4a.253.253,0,0,0-.108-.225A.25.25,0,0,0,45.451,60.388Z"/><path d="M46.326,59.134a.251.251,0,0,0-.239-.209c-.191-.006-.386-.012-.576-.012a.252.252,0,0,0-.207.109.331.331,0,0,1-.1.1,1.059,1.059,0,0,0-.342.288.251.251,0,0,0,.189.415.247.247,0,0,0,.092-.018c.338-.134.681-.267,1.025-.4A.251.251,0,0,0,46.326,59.134Z"/><path d="M34.054,66.675a2.207,2.207,0,0,1,.252,1.246.25.25,0,0,0,.393.22l.126-.089c.568-.4,1.154-.81,1.654-1.237a.248.248,0,0,0,.084-.226c-.214-1.475-1.789-1.771-2.629-1.929a2.138,2.138,0,0,0-.75,0,.25.25,0,0,0-.19.141,2.927,2.927,0,0,0-.107.277,2.281,2.281,0,0,1-.091.237c-.01.016-.031.06-.052.1l-.029.059a.187.187,0,0,0-.022.039.252.252,0,0,0,.169.354A2.088,2.088,0,0,1,34.054,66.675Z"/><path d="M24.064,75.282c-.565-1.019-2.243-1.368-3.467-1.623-.2-.042-.39-.081-.558-.12h0c-1.039-.238-2.09-.436-2.89-.582a.253.253,0,0,0-.287.182,4.267,4.267,0,0,1-.215.62.248.248,0,0,0,0,.2.252.252,0,0,0,.143.136,12.611,12.611,0,0,0,2.188.527c1.492.267,2.9.519,3.653,1.8a.25.25,0,0,0,.187.122l.029,0a.249.249,0,0,0,.181-.078A8.361,8.361,0,0,1,24,75.6.248.248,0,0,0,24.064,75.282Z"/><path d="M37.447,81.286l.232-.08h0a2.11,2.11,0,0,1,.25-.068A2.048,2.048,0,0,0,38.371,81a.25.25,0,0,0,.186-.238c.023-2.163.165-3.807,1.778-5.266a33.841,33.841,0,0,1,4.613-3.271c.942-.592,1.914-1.2,2.811-1.845.276-.2.571-.418.871-.648a.25.25,0,0,0-.076-.437,7.834,7.834,0,0,0-2.12-.4c-.074,0-.164-.012-.265-.022-.536-.057-1.352-.143-1.635.467a3.265,3.265,0,0,0-.32,1.262.411.411,0,0,1-.171.322c-.009.007-.07.059-.078.067a14.94,14.94,0,0,1-1.58,1.032c-.187.111-.374.223-.564.339a10.969,10.969,0,0,0-2.069,1.784l-.342.348a28.048,28.048,0,0,1-3.174,2.663.253.253,0,0,0-.1.179c-.031.365-.086.725-.142,1.085a10.96,10.96,0,0,0-.169,1.668c0,.43-.018.9-.057,1.44a.25.25,0,0,0,.249.268.237.237,0,0,0,.107-.025,5.329,5.329,0,0,1,.725-.29C37.052,81.424,37.248,81.355,37.447,81.286Z"/><path d="M38.947,81.833c-.04-.01-.087-.026-.134-.042a.26.26,0,0,0-.174.006,7.211,7.211,0,0,1-.732.242c-.147.043-.295.085-.439.133h-.005c-.3.107-.6.221-.884.347a.25.25,0,0,0,.054.474l.546.105c.375.072.752.144,1.131.212a.315.315,0,0,0,.044,0,.249.249,0,0,0,.249-.232.364.364,0,0,1,.046-.151,6.3,6.3,0,0,1,.439-.709.249.249,0,0,0-.141-.389Z"/><path d="M34.789,78.042c-1.025.58-2.118,1.188-3.224,1.7a.25.25,0,0,0,.056.472l.414.084a15.616,15.616,0,0,0,2.665.384h.007a.251.251,0,0,0,.25-.25c0-.276.006-.551.023-.824a10,10,0,0,1,.162-1.207l.016-.1a.25.25,0,0,0-.369-.261Z"/><path d="M60.844,59.442a.25.25,0,0,0,.371.307c.081-.057.16-.12.236-.181a1.749,1.749,0,0,1,.251-.18.425.425,0,0,1,.443.029.5.5,0,0,1,.223.419.314.314,0,0,1-.2.26,2.35,2.35,0,0,0-.411.272.25.25,0,0,0,.15.449h.021c.505-.04,1.01-.069,1.521-.086a.249.249,0,0,0,.215-.138.623.623,0,0,1,.033-.06c.365-.476.2-1.013-.488-1.59a2.818,2.818,0,0,0-.681-.439,1.571,1.571,0,0,0-.855-.026.254.254,0,0,0-.137.065,2.931,2.931,0,0,0-.634.79C60.881,59.367,60.861,59.4,60.844,59.442Z"/><path d="M13.6,71.38a.948.948,0,0,1,.495-.075,6.54,6.54,0,0,1,2.368.624l0,.024a.354.354,0,0,0,.289.183,8.329,8.329,0,0,1,2.228.424c.269.075.537.151.807.218a.251.251,0,0,0,.3-.185l.142-.608c.264-1.123.535-2.284.869-3.413.41-3.045,1.155-5.976,3.819-6.8a4.576,4.576,0,0,1,3.079.122.25.25,0,0,0,.277-.4,9.644,9.644,0,0,0-6.847-3.08,5.9,5.9,0,0,0-4.474,2.02,18.14,18.14,0,0,0-2.8,4.632,19.048,19.048,0,0,0-.915,6.086.249.249,0,0,0,.115.215A.252.252,0,0,0,13.6,71.38Z"/><path d="M41.747,71.486a17.174,17.174,0,0,0,1.559-1.035.245.245,0,0,0,.094-.167,3.559,3.559,0,0,1,.668-1.771.243.243,0,0,0,.058-.128c.207-1.516,1.311-2.147,3.634-2.043A.255.255,0,0,0,48,66.2c1.448-3.037,6.685-4.111,9.813-4.753l1.258-.247a.25.25,0,0,0,.2-.2.254.254,0,0,0-.12-.261,12.337,12.337,0,0,0-3.719-1.487,15.08,15.08,0,0,0-5.339-.334.254.254,0,0,0-.162.11.349.349,0,0,1-.224.146c-.363.1-.756.188-1.16.282-.548.126-1.114.257-1.665.416a.25.25,0,0,0-.18.219l-.047.573a13.072,13.072,0,0,1-.577,3.424c-.285.779-1.867.548-2.182.495a.4.4,0,0,1-.264-.27,4.258,4.258,0,0,1,.092-1.57,8.494,8.494,0,0,0,.181-1.126.25.25,0,0,0-.349-.253l-.566.242a8.35,8.35,0,0,0-3.393,2.1,6.9,6.9,0,0,0-.768,1.406,4.558,4.558,0,0,1-1.016,1.64c-.515.428-1.068.822-1.6,1.2a22.233,22.233,0,0,0-2.069,1.607.253.253,0,0,0-.048.061.663.663,0,0,1-.058.081,23.927,23.927,0,0,1-6.117,4.39c-1.147.656-2.333,1.335-3.39,2.067a.258.258,0,0,0-.074.08c-.748,1.3-.963,2.22-.654,2.824a1.468,1.468,0,0,0,1.259.708c.291.047.581.093.882.147.423.059.86.112,1.314.161h.072a9.374,9.374,0,0,0,4.041-1.143c.97-.462,1.9-1,2.794-1.51.4-.228.8-.456,1.2-.681a.226.226,0,0,0,.067-.036,37.973,37.973,0,0,0,4.14-3.634A10.871,10.871,0,0,1,41.747,71.486Z"/><path d="M18.089,78.14c-.263-.048-.5-.092-.71-.137-.7-.149-1.384-.275-2.066-.4-.516-.094-1.03-.188-1.542-.292a.241.241,0,0,0-.209.052.248.248,0,0,0-.091.193.577.577,0,0,1-.051.265,7.119,7.119,0,0,0-.367,1.077.25.25,0,0,0,.223.318l.911.058a36.869,36.869,0,0,1,3.7.355c1.393.234,2.788.445,4.182.656l.037,0a.25.25,0,0,0,.205-.393C21.523,78.767,19.538,78.4,18.089,78.14Z"/><path d="M34.662,81.521a45.718,45.718,0,0,1-5.21-.726c-.009,0-.03,0-.08-.054a.254.254,0,0,0-.253-.071c-.257.075-.526.138-.8.195a.25.25,0,0,0,0,.49q1.893.373,3.779.749l2.453.486a.27.27,0,0,0,.048,0,.252.252,0,0,0,.238-.171.183.183,0,0,0,.01-.1c.024-.176.037-.357.048-.538a.25.25,0,0,0-.063-.185A.252.252,0,0,0,34.662,81.521Z"/><path d="M7.224,74.894a.248.248,0,0,0,.212.184,25.646,25.646,0,0,1,2.63.453l.242.055a4.549,4.549,0,0,0,1.032.164,1.71,1.71,0,0,0,1.139-.416,3.624,3.624,0,0,0,1.007-1.351.247.247,0,0,0-.008-.22.25.25,0,0,0-.18-.128c-.168-.027-.336-.051-.5-.075a11.186,11.186,0,0,1-1.218-.219c-.25-.064-.5-.134-.74-.2a13.814,13.814,0,0,0-1.718-.41h0a.3.3,0,0,1-.194-.092.251.251,0,0,0-.293-.073.97.97,0,0,1-.092.034.246.246,0,0,0-.169.234A2.515,2.515,0,0,1,7.5,74.5c-.036.03-.073.055-.109.081l-.074.052A.247.247,0,0,0,7.224,74.894Z"/><path d="M13.752,75.474a.238.238,0,0,0,.039.055.3.3,0,0,0,.081.075.252.252,0,0,0,.177.073.255.255,0,0,0,.164-.061,6.588,6.588,0,0,0,.765-.779.252.252,0,0,0-.089-.387c-.03-.013-.06-.024-.091-.034l-.065-.026a1.755,1.755,0,0,0-.2-.088.252.252,0,0,0-.309.127,5.972,5.972,0,0,1-.454.787A.247.247,0,0,0,13.752,75.474Z"/><path d="M14.162,72.943a.346.346,0,0,1,.246.175.3.3,0,0,0,.043.057.359.359,0,0,1,.094.149.246.246,0,0,0,.147.164,1.893,1.893,0,0,0,.209.068h.005a1.149,1.149,0,0,1,.2.077,1.953,1.953,0,0,0,.287.107l.107.019a.283.283,0,0,0,.041,0,.25.25,0,0,0,.224-.138,3.9,3.9,0,0,0,.288-.8.252.252,0,0,0-.143-.289,4.855,4.855,0,0,0-1.513-.377,1.367,1.367,0,0,1-.141-.02l-.123-.02a.238.238,0,0,0-.239.109l-.048.081-.1.228a.25.25,0,0,0,0,.217.254.254,0,0,0,.171.133Z"/><path d="M14.921,76.719c.6.126,1.2.244,1.8.363,1.249.247,2.539.5,3.79.823a6.934,6.934,0,0,1,1.293.457.263.263,0,0,0,.109.025.251.251,0,0,0,.25-.241,1.815,1.815,0,0,1,.068-.407.258.258,0,0,0-.018-.177.8.8,0,0,1-.043-.105c-.441-1.495-1.587-1.681-2.694-1.861-.241-.039-.485-.078-.76-.139A16.734,16.734,0,0,1,16.3,74.79a.251.251,0,0,0-.3.092c-.085.125-.17.244-.262.365a6.557,6.557,0,0,1-.931.958.25.25,0,0,0-.085.188v.082A.249.249,0,0,0,14.921,76.719Z"/><path d="M12.126,76.93a.393.393,0,0,1-.241-.171.228.228,0,0,0-.226-.118,7.917,7.917,0,0,1-2.129-.336l-.244-.061a17.042,17.042,0,0,0-3.823-.463.3.3,0,0,0-.287.059.258.258,0,0,0-.069.186c.016.263.034.525.052.787.025.353.049.7.066,1.06a.25.25,0,0,0,.163.223,3.715,3.715,0,0,0,.486.133l.173.04a.247.247,0,0,0,.266-.1,1.014,1.014,0,0,1,.826-.5,1.529,1.529,0,0,1,1.619.778.254.254,0,0,0,.163.139,18.007,18.007,0,0,0,2.865.51H11.8a.341.341,0,0,0,.26-.215c.052-.13.128-.366.179-.525l.019-.058a8.094,8.094,0,0,1,.4-.927.25.25,0,0,0-.169-.354Z"/><path d="M10.9,72.261l.9.262a1.806,1.806,0,0,0,.318.068l.031,0a.25.25,0,0,0,.25-.25c0-.191,0-.375.006-.56a.249.249,0,0,0-.07-.182.244.244,0,0,0-.252-.065,8.32,8.32,0,0,0-1.182.244.25.25,0,0,0,0,.481Z"/><path d="M5.346,74.6a.255.255,0,0,0,.086-.015c.106-.039.214-.073.323-.107a3.537,3.537,0,0,0,.775-.313,2.476,2.476,0,0,0,.788-.733.251.251,0,0,0,0-.277.241.241,0,0,0-.256-.1l-.161.034c-.139.03-.276.06-.415.08-.074.011-.155.018-.239.025-.427.038-1.14.1-1.14.79L5.1,74.35a.249.249,0,0,0,.25.25Z"/></g></svg>