<?xml version="1.0" encoding="UTF-8" standalone="no"?>
<svg
   xmlns:dc="http://purl.org/dc/elements/1.1/"
   xmlns:cc="http://creativecommons.org/ns#"
   xmlns:rdf="http://www.w3.org/1999/02/22-rdf-syntax-ns#"
   xmlns:svg="http://www.w3.org/2000/svg"
   xmlns="http://www.w3.org/2000/svg"
   xmlns:xlink="http://www.w3.org/1999/xlink"
   xmlns:sodipodi="http://sodipodi.sourceforge.net/DTD/sodipodi-0.dtd"
   xmlns:inkscape="http://www.inkscape.org/namespaces/inkscape"
   viewBox="0 0 4096 4096"
   version="1.1"
   class="injected-svg js-svg-inject"
   id="svg15"
   sodipodi:docname="formula-1-logo.svg"
   inkscape:version="0.92.2 (5c3e80d, 2017-08-06)"
   width="4096"
   height="4096"
   inkscape:export-filename="C:\Users\suitedoalex\sites\formula-1-logo-0.png"
   inkscape:export-xdpi="96"
   inkscape:export-ydpi="96">
  <metadata
     id="metadata19">
    <rdf:RDF>
      <cc:Work
         rdf:about="">
        <dc:format>image/svg+xml</dc:format>
        <dc:type
           rdf:resource="http://purl.org/dc/dcmitype/StillImage" />
        <dc:title>Logos / F1-logo red</dc:title>
      </cc:Work>
    </rdf:RDF>
  </metadata>
  <sodipodi:namedview
     pagecolor="#ffffff"
     bordercolor="#666666"
     borderopacity="1"
     objecttolerance="10"
     gridtolerance="10"
     guidetolerance="10"
     inkscape:pageopacity="0"
     inkscape:pageshadow="2"
     inkscape:window-width="1600"
     inkscape:window-height="837"
     id="namedview17"
     showgrid="false"
     inkscape:zoom="0.082552083"
     inkscape:cx="-898.19397"
     inkscape:cy="2452.594"
     inkscape:window-x="-8"
     inkscape:window-y="-8"
     inkscape:window-maximized="1"
     inkscape:current-layer="svg15" />
  <!-- Generator: Sketch 49.1 (51147) - http://www.bohemiancoding.com/sketch -->
  <title
     id="title2">Logos / F1-logo red</title>
  <desc
     id="desc4">Created with Sketch.</desc>
  <defs
     id="defs7">
    <path
       d="m 101.08681,30 h 0.625 v -2.893125 h 0.0106 L 102.76181,30 h 0.54063 l 1.03937,-2.893125 h 0.0106 V 30 h 0.625 v -3.74875 h -0.91375 l -1.00813,2.935 h -0.0106 l -1.03375,-2.935 h -0.92438 z m -3.459373,-3.181875 h 1.18625 V 30 h 0.65625 v -3.181875 h 1.191873 V 26.25125 H 97.627437 Z M 89.999938,30 119.99994,0 H 101.94369 L 71.944312,30 Z M 85.698688,13.065 H 49.381813 c -11.068126,0 -13.005001,0.586875 -17.745626,5.3275 C 27.202437,22.82625 20.000562,30 20.000562,30 h 15.731876 l 3.753124,-3.753125 c 2.467501,-2.4675 3.740001,-2.723125 8.92125,-2.723125 h 26.83375 z M 31.151812,16.253125 C 27.877437,19.3425 20.753062,26.263125 16.913062,30 H -6.25e-5 c 0,0 13.5525005,-13.513125 21.0849995,-20.9275 C 28.845562,1.685 32.714312,0 46.948687,0 H 98.764313 L 87.544938,11.21875 H 48.001187 c -10.001874,0 -12.249375,0.693125 -16.849375,5.034375 z"
       id="path-1"
       inkscape:connector-curvature="0" />
  </defs>
  <g
     id="Logos-/-F1-logo-red"
     inkscape:export-filename="C:\Users\suitedoalex\sites\formula-1-logo-7.png"
     inkscape:export-xdpi="40"
     inkscape:export-ydpi="40"
     style="fill:none;fill-rule:evenodd;stroke:none;stroke-width:1"
     transform="matrix(50.823144,0,0,50.823144,4899.5171,215.77007)">
    <g
       id="Page-1">
      <mask
         id="mask-2"
         fill="white">
        <use
           xlink:href="#path-1"
           id="use9"
           x="0"
           y="0"
           width="100%"
           height="100%" />
      </mask>
      <use
         id="Fill-1"
         xlink:href="#path-1"
         style="fill:#ee0000"
         x="0"
         y="0"
         width="100%"
         height="100%" />
    </g>
  </g>
  <path
     inkscape:connector-curvature="0"
     class="st0"
     d="m 1341.285,1736.9564 -314.7554,307.3319 H 622.6924 l 501.827,-497.3729 c 185.587,-185.587 276.1534,-215.2809 593.8782,-215.2809 h 1256.0523 l -273.1839,267.2452 h -947.2357 c -237.5513,0 -288.0309,17.8164 -412.7453,138.0767 z m 1319.8942,-96.5053 h -901.2101 c -239.036,0 -276.1534,17.8163 -384.5361,126.1992 l -276.1534,277.6379 h 374.1433 l 89.0817,-89.0817 c 59.3878,-59.3877 84.6276,-63.8418 203.4033,-63.8418 h 645.8425 z m 97.9899,403.8371 714.1385,-712.6538 h -443.9239 l -712.6538,712.6538 z"
     id="path8"
     style="stroke-width:14.84695435;fill:#ee0000;fill-opacity:1"
     inkscape:export-filename="C:\Users\suitedoalex\sites\formula-1-logo-5.png"
     inkscape:export-xdpi="23.573858"
     inkscape:export-ydpi="23.573858" />
</svg>
