<svg id="svg15" class="injected-svg js-svg-inject" version="1.1" viewBox="589.824 1277.952 2908.16 802.816" xmlns:xlink="http://www.w3.org/1999/xlink" xmlns="http://www.w3.org/2000/svg" style="max-height: 500px" width="2908.16" height="802.816">
  <metadata id="metadata19">
    
      
        image/svg+xml
        
        Logos / F1-logo red
      
    
  </metadata>
  
  
  <title id="title2">Logos / F1-logo red</title>
  <desc id="desc4">Created with Sketch.</desc>
  <defs id="defs7">
    <path id="path-1" d="m 101.08681,30 h 0.625 v -2.893125 h 0.0106 L 102.76181,30 h 0.54063 l 1.03937,-2.893125 h 0.0106 V 30 h 0.625 v -3.74875 h -0.91375 l -1.00813,2.935 h -0.0106 l -1.03375,-2.935 h -0.92438 z m -3.459373,-3.181875 h 1.18625 V 30 h 0.65625 v -3.181875 h 1.191873 V 26.25125 H 97.627437 Z M 89.999938,30 119.99994,0 H 101.94369 L 71.944312,30 Z M 85.698688,13.065 H 49.381813 c -11.068126,0 -13.005001,0.586875 -17.745626,5.3275 C 27.202437,22.82625 20.000562,30 20.000562,30 h 15.731876 l 3.753124,-3.753125 c 2.467501,-2.4675 3.740001,-2.723125 8.92125,-2.723125 h 26.83375 z M 31.151812,16.253125 C 27.877437,19.3425 20.753062,26.263125 16.913062,30 H -6.25e-5 c 0,0 13.5525005,-13.513125 21.0849995,-20.9275 C 28.845562,1.685 32.714312,0 46.948687,0 H 98.764313 L 87.544938,11.21875 H 48.001187 c -10.001874,0 -12.249375,0.693125 -16.849375,5.034375 z"/>
  </defs>
  <g transform="matrix(50.823144,0,0,50.823144,4899.5171,215.77007)" style="fill:none;fill-rule:evenodd;stroke:none;stroke-width:1" id="Logos-/-F1-logo-red">
    <g id="Page-1">
      <mask fill="white" id="mask-2">
        
      </mask>
      
    </g>
  </g>
  <path style="stroke-width:14.84695435;fill:#ee0000;fill-opacity:1" id="path8" d="m 1341.285,1736.9564 -314.7554,307.3319 H 622.6924 l 501.827,-497.3729 c 185.587,-185.587 276.1534,-215.2809 593.8782,-215.2809 h 1256.0523 l -273.1839,267.2452 h -947.2357 c -237.5513,0 -288.0309,17.8164 -412.7453,138.0767 z m 1319.8942,-96.5053 h -901.2101 c -239.036,0 -276.1534,17.8163 -384.5361,126.1992 l -276.1534,277.6379 h 374.1433 l 89.0817,-89.0817 c 59.3878,-59.3877 84.6276,-63.8418 203.4033,-63.8418 h 645.8425 z m 97.9899,403.8371 714.1385,-712.6538 h -443.9239 l -712.6538,712.6538 z" class="st0"/>
</svg>